Genre:Fantasy | Adventure
Language:English
IMDb:http://www.imdb.com/title/tt1623772/
Source:DVD R5 Thanks!
Encoder:Tony

Format : AVI
Format/Info : Audio Video Interleave
File size : 1.24 GiB
Duration : 1h 26mn
Overall bit rate : 2 047 Kbps


Video
ID : 0
Format : MPEG-4 Visual
Format profile : Advanced Simple@L5
Format settings, BVOP : 1
Format settings, QPel : No
Format settings, GMC : No warppoints
Format settings, Matrix : Default (H.263)
Codec ID : XVID
Codec ID/Hint : XviD
Duration : 1h 26mn
Bit rate : 1 589 Kbps
Width : 640 pixels
Height : 360 pixels
Display aspect ratio : 16:9
Frame rate : 25.000 fps
Color space : YUV
Chroma subsampling : 4:2:0
Bit depth : 8 bits
Scan type : Progressive
Compression mode : Lossy
Bits/(Pixel*Frame) : 0.276
Stream size : 983 MiB (78%)
Writing library : XviD 1.2.1 (UTC 2008-12-04)

Audio
ID : 1
Format : AC-3
Format/Info : Audio Coding 3
Mode extension : CM (complete main)
Codec ID : 2000
Duration : 1h 26mn
Bit rate mode : Constant
Bit rate : 448 Kbps
Channel(s) : 6 channels
Channel positions : Front: L C R, Side: L R, LFE
Sampling rate : 48.0 KHz
Bit depth : 16 bits
Compression mode : Lossy
Stream size : 277 MiB (22%)
Alignment : Aligned on interleaves
Interleave, duration : 40 ms (1.00 video frame)
Interleave, preload duration : 512 ms


Plot:
The One Warrior is a fantasy/action piece that is loosely based on video adventure games.
In our story, the character of The One Warrior finds himself in a mythical world where he
must destroy the Evil Lord Shoukata, but to do so he must first fight his way through many
challenges. These include dragons, the cursed swords of Damacleus, the Samurai Six, the
Amazon Warriors, and much, much more. With each level he passes through, the more powerful
he becomes until the end where we realize it is really a man who may have been testing a
new video game.